<svg width="81" height="20" viewBox="0 0 81 20" fill="none" xmlns="http://www.w3.org/2000/svg">
<g clip-path="url(#clip0_1_6)">
<path d="M37.3 1.70001C37.3 1.00001 36.699 0.600006 36.1 0.600006H23.5V1.80001H34.199V4.60001C34.199 5.70001 34.099 6.70001 33.8 7.60001H21.199V8.90001H28.599V11.3H23.299V12.5H34.198V19H36C36.899 19 37.3 18.699 37.3 17.699V12.399C37.3 11.699 36.8 11.299 36.199 11.299H31.699V8.90001H39.399V7.60001H36.399C36.899 6.90001 37.299 5.60001 37.299 4.50001L37.3 1.70001Z" fill="white"/>
<path d="M7.5 12.6H4C4.3 12.9 4.399 13.6 4.399 14.2V17.7C4.399 18.9 4.8 19.2 6 19.2H16.8V18H7.4V12.6H7.5Z" fill="white"/>
<path d="M11.3 1.80001H7.199V0.200012H3.8C4 0.400012 4.1 1.00001 4.1 1.50001V1.80001H0V3.00001H2.699C1.5 3.80001 0.699 5.10001 0.699 6.70001C0.699 9.40001 3 11.3 5.599 11.3C8.299 11.3 10.499 9.40001 10.599 6.70001C10.599 5.10001 9.799 3.80001 8.599 3.00001H11.299V1.80001H11.3ZM5.6 10.1C4.2 10.1 3.3 8.70001 3.3 6.80001C3.3 4.80001 4.199 3.50001 5.6 3.50001C7.001 3.50001 7.9 4.90001 7.9 6.80001C7.899 8.70001 7 10.1 5.6 10.1Z" fill="white"/>
<path d="M16.1 0.600006H12.6C12.9 0.900006 13 1.60001 13 2.20001V13.8H14.8C15.699 13.8 16.1 13.4 16.1 12.5V6.30001H19.1V5.10001H16.1C16.1 5.00001 16.1 0.600006 16.1 0.600006Z" fill="white"/>
<path d="M77 0.600006C77.399 0.900006 77.6 1.60001 77.6 2.20001V19.2H79C80 19.2 80.399 18.6 80.399 17.6V0.600006H77Z" fill="white"/>
<path d="M73.5 6.50001H70.5V7.70001H73.5V17.4H74.8C75.8 17.4 76.199 16.8 76.199 15.7V0.600006H72.899C73.299 0.900006 73.399 1.60001 73.399 2.20001L73.5 6.50001Z" fill="white"/>
<path d="M52.3 2.50002C52.4 1.80002 52 1.30002 51.3 1.30002H43.1V2.60002H49.2C49.2 7.00002 46.501 9.80002 42.1 10.6L42.7 11.4C48.399 10.7 51.8 8.00002 52.3 2.50002Z" fill="white"/>
<path d="M58.6 0.600006H55.1C55.5 0.900006 55.6 1.60001 55.6 2.20001V3.60001H52.4V4.90001H55.6V6.60001H52.3V7.80001H55.6V10.7C54.8 10.4 53.9 10.2 53 10.2C50 10.2 47.5 12.2 47.5 15C47.5 17.899 50 19.8 53 19.8C56 19.8 58.5 17.8 58.6 15C58.6 14.899 58.6 14.899 58.6 14.8V0.600006ZM53 18.5C51.399 18.5 50.3 17.1 50.3 15C50.3 12.899 51.4 11.5 53 11.5C54.6 11.5 55.699 12.899 55.699 15C55.699 17.1 54.6 18.5 53 18.5Z" fill="white"/>
<path d="M71.399 2.40002C71.399 1.60002 70.899 1.30002 70.299 1.30002H63.099V2.60002H68.399C68.399 6.40002 65.699 8.90002 61.799 10.3C66.099 11 69.299 13.1 71.499 16.199V12.399C69.698 11 67.698 10.199 65.799 9.89902C68.699 8.70002 71.399 5.00002 71.399 2.40002Z" fill="white"/>
</g>
<defs>
<clipPath id="clip0_1_6">
<rect width="80.399" height="19.6" fill="white" transform="translate(0 0.200012)"/>
</clipPath>
</defs>
</svg>
